<svg width="1201" height="1157" viewBox="0 0 1201 1157" fill="none" xmlns="http://www.w3.org/2000/svg">
<rect width="1201" height="1157" fill="#1E1E1E"/>
<path fill-rule="evenodd" clip-rule="evenodd" d="M1502.57 -717H336.574V-71.6023L283.746 -119.146L179.683 -212.799L76.3638 -305.784L-27.6991 -399.437L-131.019 -492.421L-217.985 -570.689L-235.081 -586.074L-504 -287.266L-494.262 -263.703C-494.021 -263.144 -493.774 -262.572 -493.523 -261.989C-482.885 -237.294 -463.305 -191.839 -392.579 -201.789C-363.294 -206.224 -325.168 -220.233 -286.982 -234.265C-231.736 -254.564 -176.361 -274.911 -147.441 -266.385C-121.003 -258.849 -115.636 -228.311 -110.266 -197.756C-105.415 -170.154 -100.561 -142.539 -80.171 -131.85C-56.6511 -119.06 -11.4586 -129.872 33.6614 -140.667C68.2509 -148.943 102.798 -157.208 127.505 -154.822C184.516 -147.91 189.274 -84.4326 149.287 30.2584C138.489 60.4858 124.641 94.2081 110.755 128.021C72.262 221.755 33.4825 316.187 58.6102 338.801C76.7914 355.164 127.223 335.692 177.363 316.332C223.568 298.492 269.526 280.747 289.774 291.227C315.004 305.105 299.976 363.183 284.911 421.406C274.722 460.784 264.516 500.228 266.736 526.108C269.298 566.339 301.555 574.162 333.702 581.958C352.871 586.606 372 591.245 384.772 602.739C405.619 621.501 410.242 657.758 414.876 694.104C418.008 718.668 421.145 743.273 429.298 762.547C448.105 810.415 498.426 824.759 554.693 831.002C565.875 832.198 577.28 833.089 588.656 833.978L588.662 833.979H588.663C635.968 837.675 682.773 841.333 710.934 866.677C739.112 892.037 747.805 940.063 756.398 987.541C758.233 997.674 760.062 1007.78 762.076 1017.64C774.936 1073.61 793.742 1121.48 851.422 1127.65C882.643 1131.11 925.833 1121.73 968.967 1112.37L968.968 1112.37C1003.57 1104.86 1038.14 1097.36 1066.46 1096.5C1131.49 1094.49 1165.69 1125.26 1183.53 1141.32L1200.62 1156.7L1424.72 907.695L1421.73 905H2394.57V63H2119.57V1H1657.57V-342H1502.57V-717Z" fill="#0099FF"/>
</svg>
